<svg width="295" height="82" viewBox="0 0 295 82" fill="none" xmlns="http://www.w3.org/2000/svg">
<path d="M57.0341 55.3617C57.0341 56.2744 56.2738 57.0348 55.3611 57.0348H42.1288C41.2161 57.0348 40.4557 56.2744 40.4557 55.3617V42.1294C40.4557 41.2181 41.2161 40.4563 42.1288 40.4563H55.3611C56.2738 40.4563 57.0341 41.2181 57.0341 42.1294V55.3617Z" fill="#359830"/>
<path d="M37.2628 15.8176C37.2628 16.7303 36.501 17.4906 35.5897 17.4906H22.3574C21.4447 17.4906 20.6843 16.7303 20.6843 15.8176V2.43291C20.6843 1.52158 21.4447 0.759833 22.3574 0.759833H35.5897C36.501 0.759833 37.2628 1.52158 37.2628 2.43291V15.8176Z" fill="#359830"/>
<path d="M57.0341 15.8176C57.0341 16.7303 56.2738 17.4906 55.3611 17.4906H42.1288C41.2161 17.4906 40.4557 16.7303 40.4557 15.8176V2.43291C40.4557 1.52158 41.2161 0.759833 42.1288 0.759833H55.3611C56.2738 0.759833 57.0341 1.52158 57.0341 2.43291V15.8176Z" fill="#359830"/>
<path d="M17.4901 35.5896C17.4901 36.5023 16.7297 37.2626 15.817 37.2626H2.5847C1.67337 37.2626 0.911621 36.5023 0.911621 35.5896V22.2049C0.911621 21.2936 1.67337 20.5318 2.5847 20.5318H15.817C16.7297 20.5318 17.4901 21.2936 17.4901 22.2049V35.5896Z" fill="#359830"/>
<path d="M37.2628 35.5896C37.2628 36.5023 36.501 37.2626 35.5897 37.2626H22.3574C21.4447 37.2626 20.6843 36.5023 20.6843 35.5896V22.2049C20.6843 21.2936 21.4447 20.5318 22.3574 20.5318H35.5897C36.501 20.5318 37.2628 21.2936 37.2628 22.2049V35.5896Z" fill="#359830"/>
<path d="M17.4901 55.3617C17.4901 56.2744 16.7297 57.0348 15.817 57.0348H2.5847C1.67337 57.0348 0.911621 56.2744 0.911621 55.3617V42.1294C0.911621 41.2181 1.67337 40.4563 2.5847 40.4563H15.817C16.7297 40.4563 17.4901 41.2181 17.4901 42.1294V55.3617Z" fill="#359830"/>
<path d="M37.2628 55.3617C37.2628 56.2744 36.501 57.0348 35.5897 57.0348H22.3574C21.4447 57.0348 20.6843 56.2744 20.6843 55.3617V42.1294C20.6843 41.2181 21.4447 40.4563 22.3574 40.4563H35.5897C36.501 40.4563 37.2628 41.2181 37.2628 42.1294V55.3617Z" fill="#359830"/>
<path d="M17.4901 75.1345C17.4901 76.0472 16.7297 76.8076 15.817 76.8076H2.5847C1.67337 76.8076 0.911621 76.0472 0.911621 75.1345V61.9022C0.911621 60.9895 1.67337 60.2291 2.5847 60.2291H15.817C16.7297 60.2291 17.4901 60.9895 17.4901 61.9022V75.1345Z" fill="#359830"/>
<path d="M37.2628 75.1345C37.2628 76.0472 36.501 76.8076 35.5897 76.8076H22.3574C21.4447 76.8076 20.6843 76.0472 20.6843 75.1345V61.9022C20.6843 60.9895 21.4447 60.2291 22.3574 60.2291H35.5897C36.501 60.2291 37.2628 60.9895 37.2628 61.9022V75.1345Z" fill="#359830"/>
<path d="M18.2501 9.12579C18.2501 14.145 14.1436 18.2516 9.12438 18.2516C4.10652 18.2516 0 14.145 0 9.12579C0 4.10655 4.10652 2.74697e-05 9.12438 2.74697e-05C14.2974 2.74697e-05 18.2501 4.10655 18.2501 9.12579Z" fill="#C90C0F"/>
<mask id="mask0_1_3152" style="mask-type:luminance" maskUnits="userSpaceOnUse" x="66" y="17" width="229" height="27">
<path d="M66.5377 17.0988H294.973V43.5357H66.5377V17.0988Z" fill="white"/>
</mask>
<g mask="url(#mask0_1_3152)">
<mask id="mask1_1_3152" style="mask-type:luminance" maskUnits="userSpaceOnUse" x="66" y="17" width="9" height="27">
<path d="M66.5377 17.0988H74.162V43.5357H66.5377V17.0988Z" fill="white"/>
</mask>
<g mask="url(#mask1_1_3152)">
<path d="M68.5272 37.8095V21.9962H71.8803V37.8095H68.5272Z" fill="#281D16"/>
</g>
<mask id="mask2_1_3152" style="mask-type:luminance" maskUnits="userSpaceOnUse" x="74" y="17" width="32" height="27">
<path d="M74.1552 17.0988H105.561V43.5357H74.1552V17.0988Z" fill="white"/>
</mask>
<g mask="url(#mask2_1_3152)">
<path d="M90.1735 37.8096H85.9119L79.0327 25.8468H78.9354C78.9642 26.3443 78.9894 26.8455 79.0111 27.3502C79.0327 27.855 79.0543 28.3598 79.076 28.8645C79.0976 29.3621 79.1192 29.8632 79.1409 30.368V37.8096H76.1448V21.9962H80.3739L87.2423 33.84H87.318C87.3036 33.3497 87.2855 32.8629 87.2639 32.3798C87.2423 31.8967 87.2206 31.4135 87.199 30.9304C87.1846 30.4473 87.1702 29.9642 87.1557 29.481V21.9962H90.1735V37.8096ZM103.499 33.4182C103.499 34.3556 103.272 35.1704 102.818 35.8626C102.363 36.5549 101.7 37.0885 100.827 37.4634C99.9622 37.8384 98.9094 38.0259 97.6691 38.0259C97.1211 38.0259 96.5839 37.9898 96.0575 37.9177C95.5383 37.8456 95.0372 37.7411 94.5541 37.6041C94.0781 37.4598 93.6239 37.2832 93.1912 37.0741V33.959C93.9411 34.2907 94.7199 34.5899 95.5275 34.8567C96.3351 35.1235 97.1355 35.2569 97.9287 35.2569C98.4768 35.2569 98.9166 35.1848 99.2483 35.0406C99.5872 34.8964 99.8324 34.6981 99.9838 34.4457C100.135 34.1933 100.211 33.9049 100.211 33.5804C100.211 33.1838 100.078 32.8449 99.8108 32.5637C99.544 32.2825 99.1762 32.0193 98.7075 31.7741C98.246 31.5289 97.7232 31.2657 97.1391 30.9845C96.7714 30.8114 96.3712 30.6023 95.9385 30.3572C95.5059 30.1048 95.0949 29.7983 94.7055 29.4378C94.3161 29.0772 93.9952 28.641 93.7428 28.129C93.4977 27.6098 93.3751 26.9897 93.3751 26.2686C93.3751 25.324 93.5914 24.5164 94.0241 23.8458C94.4567 23.1752 95.0732 22.6632 95.8736 22.3099C96.6813 21.9493 97.6331 21.769 98.7291 21.769C99.5512 21.769 100.334 21.8664 101.076 22.0611C101.826 22.2486 102.609 22.5226 103.423 22.8831L102.342 25.4898C101.613 25.1942 100.961 24.9671 100.384 24.8084C99.8072 24.6426 99.2195 24.5596 98.621 24.5596C98.2027 24.5596 97.8458 24.6281 97.5502 24.7651C97.2545 24.8949 97.031 25.0824 96.8796 25.3276C96.7281 25.5656 96.6524 25.8432 96.6524 26.1604C96.6524 26.5354 96.7606 26.8527 96.9769 27.1123C97.2004 27.3647 97.5321 27.6098 97.972 27.8478C98.4191 28.0857 98.9743 28.3634 99.6377 28.6806C100.445 29.0628 101.134 29.463 101.704 29.8812C102.28 30.2923 102.724 30.779 103.034 31.3414C103.344 31.8967 103.499 32.5889 103.499 33.4182Z" fill="#281D16"/>
</g>
<mask id="mask3_1_3152" style="mask-type:luminance" maskUnits="userSpaceOnUse" x="105" y="17" width="35" height="27">
<path d="M105.692 17.0988H139.99V43.5357H105.692V17.0988Z" fill="white"/>
</mask>
<g mask="url(#mask3_1_3152)">
<path d="M113.782 37.8096H110.429V24.7868H106.135V21.9962H118.076V24.7868H113.782V37.8096ZM120.51 37.8096V21.9962H123.863V37.8096H120.51ZM133.944 37.8096H130.591V24.7868H126.297V21.9962H138.238V24.7868H133.944V37.8096Z" fill="#281D16"/>
</g>
<mask id="mask4_1_3152" style="mask-type:luminance" maskUnits="userSpaceOnUse" x="140" y="17" width="18" height="27">
<path d="M140.124 17.0988H157.531V43.5357H140.124V17.0988Z" fill="white"/>
</mask>
<g mask="url(#mask4_1_3152)">
<path d="M154.985 21.9962V32.2284C154.985 33.3172 154.743 34.3015 154.26 35.1812C153.784 36.0537 153.06 36.746 152.086 37.2579C151.12 37.7699 149.901 38.0259 148.43 38.0259C146.339 38.0259 144.746 37.4923 143.649 36.4251C142.553 35.3579 142.005 33.9446 142.005 32.1851V21.9962H145.348V31.6767C145.348 32.9819 145.614 33.8977 146.148 34.4241C146.682 34.9505 147.471 35.2137 148.517 35.2137C149.252 35.2137 149.847 35.0875 150.301 34.8351C150.763 34.5827 151.102 34.1933 151.318 33.6669C151.535 33.1405 151.643 32.4699 151.643 31.6551V21.9962H154.985Z" fill="#281D16"/>
</g>
<mask id="mask5_1_3152" style="mask-type:luminance" maskUnits="userSpaceOnUse" x="157" y="17" width="14" height="27">
<path d="M157.492 17.0988H170.827V43.5357H157.492V17.0988Z" fill="white"/>
</mask>
<g mask="url(#mask5_1_3152)">
<path d="M165.582 37.8096H162.229V24.7868H157.935V21.9962H169.876V24.7868H165.582V37.8096Z" fill="#281D16"/>
</g>
<mask id="mask6_1_3152" style="mask-type:luminance" maskUnits="userSpaceOnUse" x="170" y="17" width="38" height="27">
<path d="M170.897 17.0988H207.849V43.5357H170.897V17.0988Z" fill="white"/>
</mask>
<g mask="url(#mask6_1_3152)">
<path d="M187.241 29.8812C187.241 31.0999 187.09 32.2103 186.787 33.2127C186.484 34.2078 186.022 35.0658 185.402 35.7869C184.789 36.508 184.011 37.0632 183.066 37.4526C182.121 37.8348 181.004 38.0259 179.713 38.0259C178.422 38.0259 177.304 37.8348 176.36 37.4526C175.415 37.0632 174.633 36.508 174.013 35.7869C173.4 35.0658 172.942 34.2041 172.639 33.2018C172.336 32.1995 172.185 31.0855 172.185 29.8596C172.185 28.2227 172.452 26.7986 172.985 25.5872C173.526 24.3686 174.355 23.4239 175.473 22.7533C176.591 22.0827 178.011 21.7474 179.735 21.7474C181.451 21.7474 182.86 22.0827 183.964 22.7533C185.074 23.4239 185.896 24.3686 186.43 25.5872C186.971 26.8058 187.241 28.2372 187.241 29.8812ZM175.7 29.8812C175.7 30.9845 175.837 31.9363 176.111 32.7367C176.392 33.5299 176.829 34.1429 177.42 34.5755C178.011 35.0009 178.775 35.2137 179.713 35.2137C180.665 35.2137 181.436 35.0009 182.028 34.5755C182.619 34.1429 183.048 33.5299 183.315 32.7367C183.589 31.9363 183.726 30.9845 183.726 29.8812C183.726 28.2227 183.416 26.9176 182.796 25.9658C182.175 25.0139 181.155 24.538 179.735 24.538C178.79 24.538 178.018 24.7543 177.42 25.187C176.829 25.6124 176.392 26.2253 176.111 27.0257C175.837 27.8189 175.7 28.7708 175.7 29.8812ZM199.572 37.8096H196.273V21.9962H205.337V24.7435H199.572V28.8212H204.936V31.5578H199.572V37.8096Z" fill="#281D16"/>
</g>
<mask id="mask7_1_3152" style="mask-type:luminance" maskUnits="userSpaceOnUse" x="207" y="17" width="59" height="27">
<path d="M207.92 17.0988H265.967V43.5357H207.92V17.0988Z" fill="white"/>
</mask>
<g mask="url(#mask7_1_3152)">
<path d="M219.017 37.8096H209.91V21.9962H219.017V24.7435H213.263V28.2155H218.617V30.9629H213.263V35.0406H219.017V37.8096ZM235.447 29.7514C235.447 31.5325 235.104 33.0216 234.419 34.2186C233.741 35.4084 232.757 36.3061 231.466 36.9118C230.176 37.5103 228.622 37.8096 226.805 37.8096H222.327V21.9962H227.291C228.95 21.9962 230.388 22.2918 231.607 22.8831C232.826 23.4672 233.77 24.3361 234.441 25.4898C235.111 26.6364 235.447 28.0569 235.447 29.7514ZM231.964 29.838C231.964 28.6698 231.791 27.7108 231.445 26.9609C231.106 26.2037 230.601 25.6449 229.93 25.2843C229.267 24.9238 228.445 24.7435 227.464 24.7435H225.68V35.0406H227.118C228.755 35.0406 229.97 34.6043 230.763 33.7318C231.564 32.8593 231.964 31.5614 231.964 29.838ZM247.831 37.8096H238.724V21.9962H247.831V24.7435H242.077V28.2155H247.431V30.9629H242.077V35.0406H247.831V37.8096ZM255.749 21.9962C257.184 21.9962 258.366 22.1692 259.297 22.5154C260.234 22.8615 260.93 23.3843 261.384 24.0837C261.838 24.7832 262.066 25.6665 262.066 26.7337C262.066 27.4548 261.929 28.0857 261.655 28.6266C261.381 29.1674 261.02 29.6253 260.573 30.0002C260.126 30.3752 259.643 30.6816 259.124 30.9196L263.775 37.8096H260.054L256.279 31.7416H254.494V37.8096H251.141V21.9962H255.749ZM255.511 24.7435H254.494V29.0159H255.576C256.686 29.0159 257.48 28.8321 257.955 28.4643C258.439 28.0893 258.68 27.5413 258.68 26.8202C258.68 26.0703 258.421 25.5367 257.901 25.2194C257.389 24.9022 256.593 24.7435 255.511 24.7435Z" fill="#281D16"/>
</g>
<mask id="mask8_1_3152" style="mask-type:luminance" maskUnits="userSpaceOnUse" x="266" y="17" width="17" height="27">
<path d="M266.118 17.0988H282.008V43.5357H266.118V17.0988Z" fill="white"/>
</mask>
<g mask="url(#mask8_1_3152)">
<path d="M277.789 37.8096L276.642 34.0455H270.877L269.73 37.8096H266.118L271.699 21.9313H275.798L281.401 37.8096H277.789ZM275.842 31.2333L274.695 27.5557C274.623 27.3106 274.526 26.9969 274.403 26.6147C274.288 26.2253 274.169 25.8324 274.046 25.4358C273.931 25.0319 273.837 24.6822 273.765 24.3866C273.693 24.6822 273.592 25.05 273.462 25.4898C273.339 25.9225 273.22 26.3335 273.105 26.7229C272.99 27.1123 272.907 27.3899 272.856 27.5557L271.721 31.2333H275.842Z" fill="#281D16"/>
</g>
<mask id="mask9_1_3152" style="mask-type:luminance" maskUnits="userSpaceOnUse" x="281" y="17" width="14" height="27">
<path d="M281.963 17.0988H294.973V43.5357H281.963V17.0988Z" fill="white"/>
</mask>
<g mask="url(#mask9_1_3152)">
<path d="M283.953 37.8096V21.9962H287.306V35.0406H293.72V37.8096H283.953Z" fill="#281D16"/>
</g>
</g>
<mask id="mask10_1_3152" style="mask-type:luminance" maskUnits="userSpaceOnUse" x="66" y="42" width="86" height="20">
<path d="M66.9587 42.2435H151.145V61.8371H66.9587V42.2435Z" fill="white"/>
</mask>
<g mask="url(#mask10_1_3152)">
<path d="M72.9824 57.7587L72.0834 53.9175H69.2475L68.3485 57.7587H66.9591L69.8441 45.8102H71.4214L74.3636 57.7587H72.9824ZM71.8382 52.7161L70.9229 48.6625C70.8847 48.4609 70.8466 48.2647 70.8084 48.074C70.7758 47.8779 70.7431 47.6899 70.7104 47.5101C70.6831 47.3249 70.6559 47.1451 70.6286 46.9707C70.6123 47.1451 70.5905 47.3249 70.5633 47.5101C70.536 47.6954 70.5033 47.8833 70.4652 48.074C70.427 48.2593 70.3862 48.45 70.3426 48.6461L69.4518 52.7161H71.8382ZM82.5036 48.6216C83.2064 48.6216 83.7267 48.8777 84.0645 49.3898C84.4078 49.8965 84.5794 50.6702 84.5794 51.7109V57.7587H83.3208V51.9315C83.3208 51.1469 83.22 50.5858 83.0184 50.248C82.8223 49.9047 82.5362 49.7331 82.1603 49.7331C81.6155 49.7331 81.2259 49.9892 80.9916 50.5013C80.7573 51.0135 80.6402 51.7545 80.6402 52.7243V57.7587H79.3979V51.9152C79.3979 51.3812 79.3543 50.9563 79.2672 50.6402C79.18 50.3188 79.0492 50.0872 78.8749 49.9456C78.706 49.8039 78.4908 49.7331 78.2292 49.7331C77.8261 49.7331 77.5155 49.872 77.2976 50.1499C77.0796 50.4278 76.9271 50.8091 76.8399 51.2941C76.7582 51.779 76.7173 52.332 76.7173 52.9531V57.7587H75.4587V48.785H76.4639L76.611 50.06H76.6846C76.799 49.7549 76.9461 49.4961 77.1259 49.2836C77.3057 49.0711 77.5182 48.9076 77.7634 48.7932C78.014 48.6788 78.2946 48.6216 78.6052 48.6216C79.1228 48.6216 79.5287 48.7632 79.8229 49.0466C80.1226 49.3244 80.3214 49.6759 80.4195 50.1008H80.5094C80.7165 49.5996 80.9753 49.2291 81.2858 48.9894C81.5964 48.7442 82.0023 48.6216 82.5036 48.6216ZM89.1398 48.6216C89.9679 48.6216 90.5591 48.8858 90.9132 49.4143C91.2674 49.9428 91.4445 50.7083 91.4445 51.7109V57.7587H90.4883L90.3003 56.4837H90.2676C90.1259 56.7888 89.957 57.0504 89.7609 57.2683C89.5648 57.4808 89.3414 57.6442 89.0907 57.7587C88.8401 57.8676 88.5513 57.9221 88.2244 57.9221C87.7613 57.9221 87.3826 57.7995 87.0884 57.5543C86.7942 57.3092 86.5763 56.9877 86.4346 56.59C86.293 56.1868 86.2221 55.7536 86.2221 55.2905C86.2221 54.4024 86.4782 53.7132 86.9904 53.2228C87.5025 52.7325 88.2299 52.4655 89.1725 52.4219L90.1941 52.3565V51.7436C90.1941 51.0244 90.096 50.4986 89.8998 50.1662C89.7037 49.8339 89.3877 49.6677 88.9518 49.6677C88.7012 49.6677 88.4369 49.7113 88.1591 49.7985C87.8866 49.8856 87.5897 50.0246 87.2682 50.2153L86.8678 49.2672C87.2056 49.0493 87.5652 48.8886 87.9466 48.785C88.3334 48.6761 88.7311 48.6216 89.1398 48.6216ZM90.2104 53.28L89.3768 53.3372C88.7448 53.3754 88.2735 53.5552 87.9629 53.8766C87.6578 54.1926 87.5052 54.653 87.5052 55.2578C87.5052 55.819 87.606 56.2331 87.8076 56.5001C88.0092 56.767 88.2871 56.9005 88.6412 56.9005C89.137 56.9005 89.5212 56.6608 89.7936 56.1813C90.0715 55.7019 90.2104 55.0399 90.2104 54.1954V53.28ZM97.1572 57.7587H92.9482V56.8923L95.6697 49.8638H93.128V48.785H97.0428V49.7086L94.3458 56.688H97.1572V57.7587ZM104.186 53.2637C104.186 53.972 104.126 54.6122 104.006 55.1843C103.886 55.7563 103.704 56.2467 103.458 56.6553C103.213 57.064 102.903 57.3773 102.527 57.5952C102.151 57.8131 101.707 57.9221 101.194 57.9221C100.704 57.9221 100.274 57.8131 99.9032 57.5952C99.5327 57.3773 99.2249 57.0667 98.9797 56.6635C98.7345 56.2549 98.5493 55.7645 98.4239 55.1924C98.2986 54.6149 98.236 53.972 98.236 53.2637C98.236 52.2721 98.3422 51.433 98.5547 50.7465C98.7672 50.0545 99.0941 49.5288 99.5354 49.1692C99.9768 48.8041 100.538 48.6216 101.219 48.6216C101.856 48.6216 102.396 48.7987 102.837 49.1528C103.279 49.5015 103.614 50.0218 103.842 50.7138C104.071 51.4003 104.186 52.2503 104.186 53.2637ZM99.5191 53.2637C99.5191 54.0428 99.579 54.6966 99.6989 55.2251C99.8188 55.7536 100.004 56.1514 100.255 56.4183C100.511 56.6853 100.835 56.8188 101.227 56.8188C101.614 56.8188 101.93 56.688 102.175 56.4265C102.426 56.165 102.611 55.7727 102.731 55.2496C102.851 54.7211 102.911 54.0591 102.911 53.2637C102.911 52.4845 102.851 51.8335 102.731 51.3104C102.611 50.7819 102.426 50.3869 102.175 50.1254C101.93 49.8584 101.611 49.7249 101.219 49.7249C100.62 49.7249 100.187 50.0218 99.9195 50.6157C99.6526 51.2042 99.5191 52.0868 99.5191 53.2637ZM109.22 48.6216C109.928 48.6216 110.465 48.8695 110.83 49.3653C111.195 49.8611 111.378 50.6212 111.378 51.6455V57.7587H110.119V51.8988C110.119 51.1742 110.024 50.6321 109.833 50.2725C109.648 49.9129 109.354 49.7331 108.95 49.7331C108.362 49.7331 107.932 49.9946 107.659 50.5177C107.387 51.0407 107.25 51.8798 107.25 53.0348V57.7587H105.992V48.785H106.997L107.136 50.0845H107.218C107.343 49.7848 107.504 49.526 107.7 49.3081C107.896 49.0902 108.122 48.9213 108.378 48.8014C108.634 48.6815 108.915 48.6216 109.22 48.6216ZM115.946 48.6216C116.774 48.6216 117.366 48.8858 117.72 49.4143C118.074 49.9428 118.251 50.7083 118.251 51.7109V57.7587H117.295L117.107 56.4837H117.074C116.932 56.7888 116.763 57.0504 116.567 57.2683C116.371 57.4808 116.148 57.6442 115.897 57.7587C115.647 57.8676 115.358 57.9221 115.031 57.9221C114.568 57.9221 114.189 57.7995 113.895 57.5543C113.601 57.3092 113.383 56.9877 113.241 56.59C113.099 56.1868 113.029 55.7536 113.029 55.2905C113.029 54.4024 113.285 53.7132 113.797 53.2228C114.309 52.7325 115.036 52.4655 115.979 52.4219L117 52.3565V51.7436C117 51.0244 116.902 50.4986 116.706 50.1662C116.51 49.8339 116.194 49.6677 115.758 49.6677C115.508 49.6677 115.243 49.7113 114.965 49.7985C114.693 49.8856 114.396 50.0246 114.075 50.2153L113.674 49.2672C114.012 49.0493 114.372 48.8886 114.753 48.785C115.14 48.6761 115.538 48.6216 115.946 48.6216ZM117.017 53.28L116.183 53.3372C115.551 53.3754 115.08 53.5552 114.769 53.8766C114.464 54.1926 114.312 54.653 114.312 55.2578C114.312 55.819 114.412 56.2331 114.614 56.5001C114.816 56.767 115.093 56.9005 115.448 56.9005C115.943 56.9005 116.328 56.6608 116.6 56.1813C116.878 55.7019 117.017 55.0399 117.017 54.1954V53.28ZM124.413 55.3886C124.413 55.928 124.315 56.3884 124.119 56.7698C123.923 57.1457 123.637 57.4317 123.261 57.6279C122.89 57.824 122.438 57.9221 121.904 57.9221C121.49 57.9221 121.111 57.8731 120.768 57.775C120.425 57.6769 120.133 57.5598 119.894 57.4236V56.1159C120.133 56.3121 120.43 56.4755 120.784 56.6063C121.139 56.7316 121.498 56.7943 121.863 56.7943C122.283 56.7943 122.604 56.6744 122.828 56.4347C123.056 56.1949 123.171 55.8599 123.171 55.4294C123.171 55.1734 123.125 54.9527 123.032 54.7674C122.939 54.5768 122.789 54.397 122.582 54.2281C122.381 54.0537 122.114 53.8712 121.781 53.6805C121.411 53.4516 121.081 53.2146 120.793 52.9695C120.509 52.7243 120.289 52.4437 120.131 52.1277C119.973 51.8062 119.894 51.4166 119.894 50.959C119.894 50.2616 120.12 49.6977 120.572 49.2672C121.03 48.8368 121.632 48.6216 122.378 48.6216C122.754 48.6216 123.108 48.6706 123.441 48.7687C123.778 48.8613 124.097 49.003 124.397 49.1937L123.923 50.2071C123.694 50.0491 123.449 49.9238 123.187 49.8311C122.931 49.7385 122.667 49.6922 122.394 49.6922C121.997 49.6922 121.681 49.8039 121.446 50.0273C121.218 50.2507 121.103 50.5503 121.103 50.9263C121.103 51.1769 121.149 51.3921 121.242 51.5719C121.335 51.7517 121.487 51.9261 121.7 52.095C121.912 52.2639 122.193 52.4546 122.542 52.6671C122.912 52.9014 123.236 53.1411 123.514 53.3863C123.797 53.626 124.018 53.9039 124.176 54.2199C124.334 54.5359 124.413 54.9255 124.413 55.3886Z" fill="#281D16"/>
</g>
<mask id="mask11_1_3152" style="mask-type:luminance" maskUnits="userSpaceOnUse" x="66" y="61" width="197" height="21">
<path d="M66.9587 61.9867H262.395V81.5803H66.9587V61.9867Z" fill="white"/>
</mask>
<g mask="url(#mask11_1_3152)">
<path d="M71.8301 66.5496C71.3561 66.5496 70.9475 66.6831 70.6042 66.9501C70.2664 67.2171 69.9885 67.5849 69.7706 68.0534C69.5581 68.5166 69.4001 69.0478 69.2966 69.6472C69.1985 70.2411 69.1494 70.8676 69.1494 71.5269C69.1494 72.5513 69.2611 73.4339 69.4845 74.1749C69.7134 74.9159 70.0348 75.488 70.4489 75.8912C70.863 76.289 71.3507 76.4879 71.9119 76.4879C72.2497 76.4879 72.5684 76.4443 72.8681 76.3571C73.1678 76.2699 73.4429 76.1637 73.6936 76.0384V77.2152C73.432 77.3678 73.1405 77.4795 72.8191 77.5503C72.4976 77.6266 72.1462 77.6648 71.7648 77.6648C70.9529 77.6648 70.2501 77.4196 69.6562 76.9292C69.0623 76.4388 68.6046 75.736 68.2831 74.8206C67.9616 73.8998 67.8009 72.7964 67.8009 71.5106C67.8009 70.666 67.8799 69.8733 68.0379 69.1323C68.2014 68.3913 68.4466 67.7374 68.7735 67.1708C69.1058 66.6041 69.5227 66.1628 70.0239 65.8468C70.5252 65.5253 71.1137 65.3646 71.7893 65.3646C72.1816 65.3646 72.5575 65.4163 72.9171 65.5199C73.2822 65.6179 73.6309 65.7623 73.9633 65.953L73.4974 67.0564C73.2468 66.8983 72.9825 66.7758 72.7046 66.6886C72.4268 66.5959 72.1353 66.5496 71.8301 66.5496ZM77.8617 68.364C78.6899 68.364 79.2811 68.6283 79.6352 69.1568C79.9894 69.6853 80.1665 70.4508 80.1665 71.4534V77.5013H79.2103L79.0223 76.2263H78.9896C78.8479 76.5314 78.679 76.793 78.4829 77.0109C78.2867 77.2234 78.0633 77.3869 77.8127 77.5013C77.5621 77.6103 77.2733 77.6648 76.9464 77.6648C76.4832 77.6648 76.1046 77.5422 75.8103 77.297C75.5161 77.0518 75.2982 76.7303 75.1565 76.3326C75.0148 75.9294 74.944 75.4962 74.944 75.0331C74.944 74.145 75.2001 73.4557 75.7123 72.9653C76.2244 72.475 76.9518 72.208 77.8944 72.1644L78.916 72.099V71.4861C78.916 70.7668 78.818 70.2411 78.6218 69.9087C78.4257 69.5763 78.1096 69.4101 77.6738 69.4101C77.4231 69.4101 77.1589 69.4537 76.881 69.5409C76.6086 69.6281 76.3116 69.767 75.9901 69.9577L75.5897 69.0097C75.9275 68.7917 76.2871 68.631 76.6685 68.5275C77.0553 68.4185 77.4531 68.364 77.8617 68.364ZM78.9324 73.0226L78.0987 73.0798C77.4667 73.1179 76.9954 73.2977 76.6848 73.6192C76.3797 73.9352 76.2272 74.3956 76.2272 75.0004C76.2272 75.5616 76.328 75.9757 76.5296 76.2427C76.7311 76.5097 77.009 76.6431 77.3632 76.6431C77.859 76.6431 78.2431 76.4034 78.5156 75.9239C78.7934 75.4445 78.9324 74.7825 78.9324 73.9379V73.0226ZM89.3855 68.364C90.0884 68.364 90.6087 68.6201 90.9465 69.1323C91.2898 69.639 91.4614 70.4127 91.4614 71.4534V77.5013H90.2028V71.674C90.2028 70.8894 90.102 70.3282 89.9004 69.9904C89.7042 69.6472 89.4182 69.4755 89.0422 69.4755C88.4974 69.4755 88.1078 69.7316 87.8735 70.2438C87.6392 70.7559 87.5221 71.497 87.5221 72.4668V77.5013H86.2798V71.6577C86.2798 71.1237 86.2362 70.6987 86.149 70.3827C86.0619 70.0613 85.9311 69.8297 85.7567 69.688C85.5878 69.5464 85.3726 69.4755 85.1111 69.4755C84.7079 69.4755 84.3973 69.6145 84.1794 69.8923C83.9614 70.1702 83.8089 70.5516 83.7217 71.0365C83.64 71.5215 83.5991 72.0745 83.5991 72.6956V77.5013H82.3405V68.5275H83.3457L83.4928 69.8024H83.5664C83.6808 69.4973 83.8279 69.2385 84.0077 69.026C84.1875 68.8135 84.4 68.6501 84.6452 68.5356C84.8959 68.4212 85.1765 68.364 85.487 68.364C86.0046 68.364 86.4106 68.5057 86.7048 68.789C87.0045 69.0669 87.2033 69.4183 87.3014 69.8433H87.3913C87.5984 69.342 87.8572 68.9715 88.1677 68.7318C88.4783 68.4866 88.8842 68.364 89.3855 68.364ZM96.8637 68.364C97.7246 68.364 98.3757 68.7509 98.817 69.5246C99.2638 70.2928 99.4872 71.4506 99.4872 72.998C99.4872 73.9951 99.3864 74.8424 99.1848 75.5398C98.9886 76.2318 98.6999 76.7603 98.3185 77.1253C97.937 77.485 97.4739 77.6648 96.9291 77.6648C96.6239 77.6648 96.3406 77.6075 96.0791 77.4931C95.8175 77.3733 95.586 77.2071 95.3844 76.9946C95.1828 76.7766 95.0139 76.5233 94.8777 76.2345H94.8205C94.8314 76.4524 94.8423 76.6622 94.8531 76.8638C94.8695 77.0654 94.8777 77.2561 94.8777 77.4359V81.506H93.619V68.5275H94.6407L94.7959 69.8433H94.8695C95.0221 69.5109 95.1964 69.2358 95.3926 69.0178C95.5942 68.7999 95.8175 68.6364 96.0627 68.5275C96.3079 68.4185 96.5749 68.364 96.8637 68.364ZM96.594 69.451C96.2126 69.451 95.8938 69.5709 95.6377 69.8106C95.3871 70.0504 95.1964 70.4127 95.0656 70.8976C94.9403 71.3771 94.8777 71.9819 94.8777 72.712V73.1452C94.8777 73.9189 94.9403 74.5591 95.0656 75.0658C95.1964 75.5725 95.3898 75.9484 95.6459 76.1936C95.9075 76.4388 96.2289 76.5614 96.6103 76.5614C96.959 76.5614 97.2505 76.4361 97.4848 76.1855C97.7246 75.9348 97.9044 75.548 98.0242 75.0249C98.1441 74.5018 98.204 73.8317 98.204 73.0144C98.204 71.832 98.0787 70.9439 97.8281 70.35C97.5829 69.7507 97.1715 69.451 96.594 69.451ZM106.638 68.5275V77.5013H105.633L105.494 76.2263H105.404C105.284 76.5206 105.126 76.7766 104.93 76.9946C104.74 77.2071 104.519 77.3733 104.268 77.4931C104.018 77.6075 103.737 77.6648 103.427 77.6648C102.903 77.6648 102.481 77.534 102.16 77.2725C101.844 77.0109 101.612 76.6377 101.465 76.1528C101.323 75.6678 101.253 75.0903 101.253 74.4201V68.5275H102.511V74.1831C102.511 74.9895 102.604 75.5834 102.789 75.9648C102.98 76.3462 103.268 76.5369 103.655 76.5369C104.075 76.5369 104.41 76.4225 104.661 76.1936C104.911 75.9593 105.094 75.6079 105.208 75.1393C105.323 74.6653 105.38 74.066 105.38 73.3413V68.5275H106.638ZM112.825 75.1312C112.825 75.6706 112.727 76.131 112.531 76.5124C112.335 76.8883 112.049 77.1744 111.673 77.3705C111.302 77.5667 110.85 77.6648 110.316 77.6648C109.902 77.6648 109.523 77.6157 109.18 77.5176C108.837 77.4196 108.545 77.3024 108.306 77.1662V75.8585C108.545 76.0547 108.842 76.2182 109.197 76.3489C109.551 76.4742 109.91 76.5369 110.275 76.5369C110.695 76.5369 111.016 76.417 111.24 76.1773C111.469 75.9376 111.583 75.6025 111.583 75.172C111.583 74.9159 111.537 74.6953 111.444 74.51C111.351 74.3193 111.202 74.1395 110.995 73.9706C110.793 73.7963 110.526 73.6137 110.194 73.423C109.823 73.1942 109.494 72.9572 109.205 72.712C108.921 72.4668 108.701 72.1862 108.543 71.8702C108.385 71.5487 108.306 71.1591 108.306 70.7015C108.306 70.004 108.532 69.4401 108.984 69.0097C109.442 68.5792 110.044 68.364 110.79 68.364C111.166 68.364 111.52 68.4131 111.853 68.5111C112.191 68.6038 112.509 68.7454 112.809 68.9361L112.335 69.9496C112.106 69.7915 111.861 69.6662 111.599 69.5736C111.343 69.481 111.079 69.4347 110.807 69.4347C110.409 69.4347 110.093 69.5464 109.859 69.7698C109.63 69.9931 109.515 70.2928 109.515 70.6688C109.515 70.9194 109.562 71.1346 109.654 71.3144C109.747 71.4942 109.899 71.6686 110.112 71.8375C110.324 72.0064 110.605 72.1971 110.954 72.4096C111.324 72.6439 111.648 72.8836 111.926 73.1288C112.21 73.3685 112.43 73.6464 112.588 73.9624C112.746 74.2785 112.825 74.668 112.825 75.1312ZM121.815 77.5013L118.914 67.3506H118.849C118.871 67.7156 118.887 68.0453 118.898 68.3395C118.914 68.6283 118.925 68.8789 118.93 69.0914C118.936 69.3039 118.939 69.4783 118.939 69.6145V77.5013H117.705V65.5525H119.543L122.396 75.4908H122.445L125.305 65.5525H127.169V77.5013H125.894V69.6472C125.894 69.5 125.896 69.3175 125.902 69.0996C125.907 68.8816 125.916 68.6283 125.926 68.3395C125.943 68.0453 125.956 67.7156 125.967 67.3506H125.91L123.009 77.5013H121.815ZM131.868 68.364C132.696 68.364 133.287 68.6283 133.642 69.1568C133.996 69.6853 134.173 70.4508 134.173 71.4534V77.5013H133.217L133.029 76.2263H132.996C132.854 76.5314 132.685 76.793 132.489 77.0109C132.293 77.2234 132.07 77.3869 131.819 77.5013C131.568 77.6103 131.28 77.6648 130.953 77.6648C130.49 77.6648 130.111 77.5422 129.817 77.297C129.523 77.0518 129.305 76.7303 129.163 76.3326C129.021 75.9294 128.95 75.4962 128.95 75.0331C128.95 74.145 129.206 73.4557 129.719 72.9653C130.231 72.475 130.958 72.208 131.901 72.1644L132.922 72.099V71.4861C132.922 70.7668 132.824 70.2411 132.628 69.9087C132.432 69.5763 132.116 69.4101 131.68 69.4101C131.43 69.4101 131.165 69.4537 130.887 69.5409C130.615 69.6281 130.318 69.767 129.997 69.9577L129.596 69.0097C129.934 68.7917 130.293 68.631 130.675 68.5275C131.062 68.4185 131.459 68.364 131.868 68.364ZM132.939 73.0226L132.105 73.0798C131.473 73.1179 131.002 73.2977 130.691 73.6192C130.386 73.9352 130.234 74.3956 130.234 75.0004C130.234 75.5616 130.334 75.9757 130.536 76.2427C130.738 76.5097 131.015 76.6431 131.37 76.6431C131.865 76.6431 132.25 76.4034 132.522 75.9239C132.8 75.4445 132.939 74.7825 132.939 73.9379V73.0226ZM139.575 68.364C140.283 68.364 140.82 68.6119 141.185 69.1077C141.55 69.6036 141.733 70.3636 141.733 71.388V77.5013H140.474V71.6413C140.474 70.9167 140.379 70.3745 140.188 70.0149C140.003 69.6553 139.709 69.4755 139.305 69.4755C138.717 69.4755 138.287 69.7371 138.014 70.2601C137.742 70.7832 137.605 71.6223 137.605 72.7774V77.5013H136.347V68.5275H137.352L137.491 69.827H137.573C137.698 69.5273 137.859 69.2685 138.055 69.0505C138.251 68.8326 138.477 68.6637 138.733 68.5438C138.989 68.424 139.27 68.364 139.575 68.364ZM146.301 68.364C147.13 68.364 147.721 68.6283 148.075 69.1568C148.429 69.6853 148.606 70.4508 148.606 71.4534V77.5013H147.65L147.462 76.2263H147.429C147.288 76.5314 147.119 76.793 146.923 77.0109C146.726 77.2234 146.503 77.3869 146.252 77.5013C146.002 77.6103 145.713 77.6648 145.386 77.6648C144.923 77.6648 144.544 77.5422 144.25 77.297C143.956 77.0518 143.738 76.7303 143.596 76.3326C143.455 75.9294 143.384 75.4962 143.384 75.0331C143.384 74.145 143.64 73.4557 144.152 72.9653C144.664 72.475 145.392 72.208 146.334 72.1644L147.356 72.099V71.4861C147.356 70.7668 147.258 70.2411 147.062 69.9087C146.865 69.5763 146.549 69.4101 146.113 69.4101C145.863 69.4101 145.599 69.4537 145.321 69.5409C145.048 69.6281 144.751 69.767 144.43 69.9577L144.029 69.0097C144.367 68.7917 144.727 68.631 145.108 68.5275C145.495 68.4185 145.893 68.364 146.301 68.364ZM147.372 73.0226L146.538 73.0798C145.906 73.1179 145.435 73.2977 145.125 73.6192C144.819 73.9352 144.667 74.3956 144.667 75.0004C144.667 75.5616 144.768 75.9757 144.969 76.2427C145.171 76.5097 145.449 76.6431 145.803 76.6431C146.299 76.6431 146.683 76.4034 146.955 75.9239C147.233 75.4445 147.372 74.7825 147.372 73.9379V73.0226ZM156.133 68.5275V77.5013H155.128L154.989 76.2263H154.899C154.779 76.5206 154.621 76.7766 154.425 76.9946C154.235 77.2071 154.014 77.3733 153.763 77.4931C153.513 77.6075 153.232 77.6648 152.921 77.6648C152.398 77.6648 151.976 77.534 151.655 77.2725C151.339 77.0109 151.107 76.6377 150.96 76.1528C150.818 75.6678 150.747 75.0903 150.747 74.4201V68.5275H152.006V74.1831C152.006 74.9895 152.099 75.5834 152.284 75.9648C152.475 76.3462 152.763 76.5369 153.15 76.5369C153.57 76.5369 153.905 76.4225 154.156 76.1936C154.406 75.9593 154.589 75.6079 154.703 75.1393C154.818 74.6653 154.875 74.066 154.875 73.3413V68.5275H156.133ZM162.32 75.1312C162.32 75.6706 162.222 76.131 162.026 76.5124C161.83 76.8883 161.544 77.1744 161.168 77.3705C160.797 77.5667 160.345 77.6648 159.811 77.6648C159.397 77.6648 159.018 77.6157 158.675 77.5176C158.332 77.4196 158.04 77.3024 157.801 77.1662V75.8585C158.04 76.0547 158.337 76.2182 158.692 76.3489C159.046 76.4742 159.405 76.5369 159.77 76.5369C160.19 76.5369 160.511 76.417 160.735 76.1773C160.964 75.9376 161.078 75.6025 161.078 75.172C161.078 74.9159 161.032 74.6953 160.939 74.51C160.846 74.3193 160.697 74.1395 160.49 73.9706C160.288 73.7963 160.021 73.6137 159.689 73.423C159.318 73.1942 158.988 72.9572 158.7 72.712C158.416 72.4668 158.196 72.1862 158.038 71.8702C157.88 71.5487 157.801 71.1591 157.801 70.7015C157.801 70.004 158.027 69.4401 158.479 69.0097C158.937 68.5792 159.539 68.364 160.285 68.364C160.661 68.364 161.015 68.4131 161.348 68.5111C161.686 68.6038 162.004 68.7454 162.304 68.9361L161.83 69.9496C161.601 69.7915 161.356 69.6662 161.094 69.5736C160.838 69.481 160.574 69.4347 160.302 69.4347C159.904 69.4347 159.588 69.5464 159.354 69.7698C159.125 69.9931 159.01 70.2928 159.01 70.6688C159.01 70.9194 159.057 71.1346 159.149 71.3144C159.242 71.4942 159.394 71.6686 159.607 71.8375C159.819 72.0064 160.1 72.1971 160.449 72.4096C160.819 72.6439 161.143 72.8836 161.421 73.1288C161.705 73.3685 161.925 73.6464 162.083 73.9624C162.241 74.2785 162.32 74.668 162.32 75.1312ZM170.836 66.5496C170.362 66.5496 169.954 66.6831 169.61 66.9501C169.273 67.2171 168.995 67.5849 168.777 68.0534C168.564 68.5166 168.406 69.0478 168.303 69.6472C168.205 70.2411 168.156 70.8676 168.156 71.5269C168.156 72.5513 168.267 73.4339 168.491 74.1749C168.72 74.9159 169.041 75.488 169.455 75.8912C169.869 76.289 170.357 76.4879 170.918 76.4879C171.256 76.4879 171.575 76.4443 171.874 76.3571C172.174 76.2699 172.449 76.1637 172.7 76.0384V77.2152C172.438 77.3678 172.147 77.4795 171.825 77.5503C171.504 77.6266 171.152 77.6648 170.771 77.6648C169.959 77.6648 169.256 77.4196 168.662 76.9292C168.069 76.4388 167.611 75.736 167.289 74.8206C166.968 73.8998 166.807 72.7964 166.807 71.5106C166.807 70.666 166.886 69.8733 167.044 69.1323C167.208 68.3913 167.453 67.7374 167.78 67.1708C168.112 66.6041 168.529 66.1628 169.03 65.8468C169.531 65.5253 170.12 65.3646 170.796 65.3646C171.188 65.3646 171.564 65.4163 171.923 65.5199C172.288 65.6179 172.637 65.7623 172.97 65.953L172.504 67.0564C172.253 66.8983 171.989 66.7758 171.711 66.6886C171.433 66.5959 171.142 66.5496 170.836 66.5496ZM176.933 68.3804C177.544 68.3804 178.045 68.5574 178.437 68.9116C178.835 69.2658 179.129 69.7425 179.32 70.3419C179.516 70.9412 179.614 71.6086 179.614 72.3442V73.2351H175.34C175.351 74.352 175.522 75.1911 175.855 75.7523C176.192 76.3135 176.699 76.5941 177.375 76.5941C177.696 76.5941 178.012 76.5451 178.323 76.447C178.633 76.3489 178.955 76.1909 179.287 75.973V77.1008C178.977 77.2915 178.652 77.4332 178.315 77.5258C177.977 77.6184 177.617 77.6648 177.236 77.6648C176.489 77.6648 175.885 77.4659 175.421 77.0681C174.958 76.6649 174.62 76.1174 174.408 75.4254C174.201 74.728 174.097 73.9406 174.097 73.0634C174.097 72.0609 174.204 71.2109 174.416 70.5135C174.629 69.8161 174.945 69.2876 175.364 68.9279C175.789 68.5629 176.312 68.3804 176.933 68.3804ZM176.933 69.4101C176.459 69.4101 176.089 69.6417 175.822 70.1048C175.555 70.5625 175.4 71.2708 175.356 72.2298H178.437C178.437 71.7231 178.383 71.2572 178.274 70.8322C178.17 70.4018 178.007 70.0585 177.783 69.8024C177.565 69.5409 177.282 69.4101 176.933 69.4101ZM184.624 68.364C185.332 68.364 185.869 68.6119 186.234 69.1077C186.599 69.6036 186.782 70.3636 186.782 71.388V77.5013H185.523V71.6413C185.523 70.9167 185.428 70.3745 185.237 70.0149C185.052 69.6553 184.758 69.4755 184.354 69.4755C183.766 69.4755 183.335 69.7371 183.063 70.2601C182.791 70.7832 182.654 71.6223 182.654 72.7774V77.5013H181.396V68.5275H182.401L182.54 69.827H182.622C182.747 69.5273 182.908 69.2685 183.104 69.0505C183.3 68.8326 183.526 68.6637 183.782 68.5438C184.038 68.424 184.319 68.364 184.624 68.364ZM191.056 76.5532C191.192 76.5532 191.329 76.5396 191.465 76.5124C191.601 76.4797 191.732 76.4361 191.857 76.3816V77.4114C191.688 77.4877 191.506 77.5476 191.309 77.5912C191.113 77.6402 190.895 77.6648 190.656 77.6648C190.269 77.6648 189.95 77.5776 189.699 77.4032C189.454 77.2289 189.272 76.9701 189.152 76.6268C189.037 76.2781 188.98 75.8422 188.98 75.3191V69.5818H188.147V68.8953L189.037 68.5602L189.373 66.4924H190.239V68.5275H191.759V69.5818H190.239V75.172C190.239 75.6352 190.293 75.9811 190.402 76.21C190.517 76.4388 190.735 76.5532 191.056 76.5532ZM196.197 68.3722C196.322 68.3722 196.448 68.3831 196.573 68.4049C196.698 68.4212 196.829 68.4512 196.965 68.4948L196.769 69.7861C196.671 69.7425 196.567 69.7125 196.458 69.6962C196.349 69.6799 196.232 69.6717 196.107 69.6717C195.862 69.6717 195.636 69.7534 195.429 69.9169C195.227 70.0749 195.053 70.2983 194.906 70.587C194.758 70.8758 194.644 71.2109 194.562 71.5923C194.486 71.9737 194.451 72.3851 194.456 72.8264V77.5013H193.197V68.5275H194.178L194.35 70.1212H194.432C194.557 69.7779 194.704 69.4755 194.873 69.214C195.042 68.9525 195.235 68.7481 195.453 68.601C195.677 68.4485 195.924 68.3722 196.197 68.3722ZM203.781 73.0062C203.781 73.7145 203.721 74.3547 203.602 74.9268C203.482 75.4989 203.299 75.9893 203.054 76.398C202.809 76.8066 202.498 77.1199 202.122 77.3378C201.746 77.5558 201.302 77.6648 200.79 77.6648C200.3 77.6648 199.869 77.5558 199.499 77.3378C199.128 77.1199 198.82 76.8093 198.575 76.4061C198.33 75.9975 198.145 75.5071 198.019 74.935C197.894 74.3575 197.831 73.7145 197.831 73.0062C197.831 72.0146 197.938 71.1755 198.15 70.489C198.363 69.797 198.69 69.2712 199.131 68.9116C199.572 68.5465 200.133 68.364 200.815 68.364C201.452 68.364 201.991 68.5411 202.433 68.8953C202.874 69.244 203.209 69.7643 203.438 70.4563C203.667 71.1428 203.781 71.9928 203.781 73.0062ZM199.115 73.0062C199.115 73.7854 199.175 74.4392 199.294 74.9677C199.414 75.4962 199.6 75.894 199.85 76.1609C200.106 76.4279 200.43 76.5614 200.823 76.5614C201.21 76.5614 201.526 76.4306 201.771 76.1691C202.021 75.9076 202.207 75.5153 202.327 74.9922C202.446 74.4637 202.506 73.8017 202.506 73.0062C202.506 72.2271 202.446 71.576 202.327 71.0529C202.207 70.5244 202.021 70.1294 201.771 69.8678C201.526 69.6008 201.207 69.4674 200.815 69.4674C200.215 69.4674 199.782 69.7643 199.515 70.3582C199.248 70.9466 199.115 71.8293 199.115 73.0062Z" fill="#281D16"/>
</g>
</svg>
